<?xml version="1.0" encoding="UTF-8" standalone="no"?>
<svg
   viewBox="0 0 24 24"
   width="36"
   height="36"
   version="1.1"
   id="svg6122"
   sodipodi:docname="delete.svg"
   inkscape:version="1.2.1 (9c6d41e410, 2022-07-14)"
   xmlns:inkscape="http://www.inkscape.org/namespaces/inkscape"
   xmlns:sodipodi="http://sodipodi.sourceforge.net/DTD/sodipodi-0.dtd"
   xmlns="http://www.w3.org/2000/svg"
   xmlns:svg="http://www.w3.org/2000/svg">
  <defs
     id="defs6126" />
  <sodipodi:namedview
     id="namedview6124"
     pagecolor="#505050"
     bordercolor="#eeeeee"
     borderopacity="1"
     inkscape:showpageshadow="0"
     inkscape:pageopacity="0"
     inkscape:pagecheckerboard="0"
     inkscape:deskcolor="#505050"
     showgrid="false"
     inkscape:zoom="13.055556"
     inkscape:cx="18.114893"
     inkscape:cy="17.999999"
     inkscape:window-width="1366"
     inkscape:window-height="699"
     inkscape:window-x="0"
     inkscape:window-y="0"
     inkscape:window-maximized="1"
     inkscape:current-layer="svg6122" />
  <path
     fill="none"
     d="M0 0h24v24H0z"
     id="path6118" />
  <path
     d="M6.535 3H21a1 1 0 0 1 1 1v16a1 1 0 0 1-1 1H6.535a1 1 0 0 1-.832-.445l-5.333-8a1 1 0 0 1 0-1.11l5.333-8A1 1 0 0 1 6.535 3zm.535 2l-4.666 7 4.666 7H20V5H7.07zM13 10.586l2.828-2.829 1.415 1.415L14.414 12l2.829 2.828-1.415 1.415L13 13.414l-2.828 2.829-1.415-1.415L11.586 12 8.757 9.172l1.415-1.415L13 10.586z"
     fill="rgba(0,11,37,1)"
     id="path6120"
     style="fill-opacity:1;fill:#000b25;stroke:none" />
</svg>
